<svg width="64.000000" height="64.000000" viewBox="0 0 64 64" fill="none" xmlns="http://www.w3.org/2000/svg" xmlns:xlink="http://www.w3.org/1999/xlink">
	<desc>
			Created with Pixso.
	</desc>
	<defs>
		<clipPath id="clip1_176">
			<rect id="IMAGE" rx="0.000000" width="63.000000" height="63.000000" transform="translate(0.500000 0.500000)" fill="white" fill-opacity="0"/>
		</clipPath>
	</defs>
	<g clip-path="url(#clip1_176)">
		<path id="Vector" d="M3.84 0C1.73 0 0 1.73 0 3.83L0 64L48.64 64L48.64 3.83C48.64 1.73 46.9 0 44.8 0L3.84 0ZM3.84 2.56L44.8 2.56C45.51 2.56 46.08 3.13 46.08 3.83L46.08 61.43L40.96 61.43L40.96 46.08L26.88 46.08L26.88 61.43L2.56 61.43L2.56 3.83C2.56 3.13 3.13 2.56 3.84 2.56ZM7.67 7.68L7.67 17.92L21.76 17.92L21.76 7.68L7.67 7.68ZM26.88 7.68L26.88 17.92L40.96 17.92L40.96 7.68L26.88 7.68ZM10.24 10.24L19.2 10.24L19.2 15.36L10.24 15.36L10.24 10.24ZM29.44 10.24L38.4 10.24L38.4 15.36L29.44 15.36L29.44 10.24ZM7.67 20.48L7.67 30.72L21.76 30.72L21.76 20.48L7.67 20.48ZM26.88 20.48L26.88 30.72L40.96 30.72L40.96 20.48L26.88 20.48ZM10.24 23.04L19.2 23.04L19.2 28.16L10.24 28.16L10.24 23.04ZM29.44 23.04L38.4 23.04L38.4 28.16L29.44 28.16L29.44 23.04ZM7.67 33.28L7.67 43.52L21.76 43.52L21.76 33.28L7.67 33.28ZM26.88 33.28L26.88 43.52L40.96 43.52L40.96 33.28L26.88 33.28ZM10.24 35.84L19.2 35.84L19.2 40.96L10.24 40.96L10.24 35.84ZM29.44 35.84L38.4 35.84L38.4 40.96L29.44 40.96L29.44 35.84ZM7.67 46.08L7.67 56.31L21.76 56.31L21.76 46.08L7.67 46.08ZM10.24 48.64L19.2 48.64L19.2 53.76L10.24 53.76L10.24 48.64ZM29.44 48.64L38.4 48.64L38.4 61.43L29.44 61.43L29.44 48.64Z" fill="#00486D" fill-opacity="1.000000" fill-rule="nonzero"/>
	</g>
</svg>
