<svg width="64.000000" height="64.000000" viewBox="0 0 64 64" fill="none" xmlns="http://www.w3.org/2000/svg" xmlns:xlink="http://www.w3.org/1999/xlink">
	<desc>
			Created with Pixso.
	</desc>
	<defs>
		<clipPath id="clip1_188">
			<rect id="IMAGE" rx="0.000000" width="63.000000" height="63.000000" transform="translate(0.500000 0.500000)" fill="white" fill-opacity="0"/>
		</clipPath>
	</defs>
	<g clip-path="url(#clip1_188)">
		<path id="Vector" d="M19.2 14C11.28 14 5.83 16.69 5.83 16.69C5.61 16.79 5.43 16.96 5.31 17.16C5.18 17.36 5.12 17.6 5.12 17.84L5.12 21.68L3.84 21.68C1.73 21.68 0 23.41 0 25.52L0 58.8C0 60.9 1.73 62.64 3.84 62.64L29.15 62.64C29.86 63.41 30.86 63.92 32 63.92C33.13 63.92 34.13 63.41 34.84 62.64L60.16 62.64C62.26 62.64 64 60.9 64 58.8L64 25.52C64 23.41 62.26 21.68 60.16 21.68L58.88 21.68L58.88 17.84C58.88 17.6 58.81 17.36 58.68 17.16C58.56 16.96 58.38 16.79 58.16 16.69C58.16 16.69 52.71 14 44.8 14C38.03 14 33.3 15.87 32 16.44C30.69 15.87 25.96 14 19.2 14ZM19.2 16.56C25.76 16.56 29.81 18.31 30.72 18.73L30.72 55.7C28.82 54.94 25.16 53.68 19.2 53.68C13.23 53.68 9.57 54.94 7.67 55.7L7.67 23.17C7.7 23.03 7.7 22.89 7.67 22.75L7.67 18.73C8.58 18.31 12.63 16.56 19.2 16.56ZM44.8 16.56C51.36 16.56 55.41 18.31 56.31 18.73L56.31 22.74C56.29 22.88 56.29 23.02 56.31 23.16L56.31 55.7C54.42 54.94 50.76 53.68 44.8 53.68C38.83 53.68 35.17 54.94 33.28 55.7L33.28 18.73C34.18 18.31 38.23 16.56 44.8 16.56ZM43.52 21.68L43.52 24.35C41.32 24.7 39.89 25.93 39.2 27.15C38.38 28.6 38.4 30.05 38.4 30.05C38.4 31.87 39.31 33.32 40.47 34.26C41.63 35.21 43 35.79 44.28 36.35C45.56 36.92 46.74 37.47 47.5 38.1C48.26 38.73 48.64 39.3 48.64 40.4C48.64 40.4 48.62 41.14 48.18 41.9C47.73 42.66 47 43.43 44.8 43.43C42.66 43.43 41.95 42.56 41.46 41.58C40.97 40.61 40.96 39.59 40.96 39.59L38.4 39.59C38.4 39.59 38.38 41.14 39.17 42.73C39.84 44.07 41.28 45.47 43.52 45.87L43.52 48.56L46.08 48.56L46.08 45.89C48.25 45.55 49.67 44.39 50.38 43.21C51.21 41.81 51.2 40.4 51.2 40.4C51.2 38.56 50.29 37.09 49.13 36.13C47.97 35.17 46.59 34.58 45.31 34.01C44.03 33.45 42.84 32.9 42.08 32.28C41.32 31.66 40.96 31.11 40.96 30.05C40.96 30.05 40.97 29.23 41.43 28.41C41.89 27.59 42.61 26.8 44.8 26.8C46.93 26.8 47.64 27.67 48.13 28.65C48.62 29.62 48.64 30.64 48.64 30.64L51.2 30.64C51.2 30.64 51.21 29.09 50.42 27.5C49.75 26.16 48.31 24.76 46.08 24.36L46.08 21.68L43.52 21.68ZM3.84 24.24L5.12 24.24L5.12 57.52C5.12 57.73 5.17 57.95 5.28 58.14C5.38 58.33 5.54 58.49 5.72 58.6C5.91 58.72 6.12 58.78 6.34 58.79C6.56 58.8 6.77 58.76 6.97 58.66C6.97 58.66 11.8 56.24 19.2 56.24C26.59 56.24 31.42 58.66 31.42 58.66C31.46 58.68 31.5 58.69 31.53 58.71C31.57 58.72 31.6 58.73 31.63 58.74C31.64 58.74 31.65 58.75 31.66 58.75C31.74 58.77 31.82 58.79 31.91 58.79C31.95 58.8 31.99 58.8 32.04 58.8C32.04 58.8 32.04 58.8 32.04 58.8C32.09 58.79 32.13 58.79 32.17 58.78C32.21 58.78 32.25 58.77 32.29 58.76C32.29 58.76 32.29 58.76 32.3 58.76C32.3 58.76 32.3 58.76 32.31 58.76C32.4 58.73 32.48 58.7 32.57 58.66C32.57 58.66 37.4 56.24 44.8 56.24C52.19 56.24 57.02 58.66 57.02 58.66C57.22 58.76 57.43 58.8 57.65 58.79C57.87 58.78 58.08 58.72 58.27 58.6C58.45 58.49 58.61 58.33 58.71 58.14C58.82 57.95 58.88 57.73 58.88 57.52L58.88 24.24L60.16 24.24C60.88 24.24 61.43 24.79 61.43 25.52L61.43 58.8C61.43 59.52 60.88 60.08 60.16 60.08L3.84 60.08C3.11 60.08 2.56 59.52 2.56 58.8L2.56 25.52C2.56 24.79 3.11 24.24 3.84 24.24Z" fill="#00486D" fill-opacity="1.000000" fill-rule="nonzero"/>
	</g>
</svg>
