<svg width="64.000000" height="64.000000" viewBox="0 0 64 64" fill="none" xmlns="http://www.w3.org/2000/svg" xmlns:xlink="http://www.w3.org/1999/xlink">
	<desc>
			Created with Pixso.
	</desc>
	<defs>
		<clipPath id="clip1_164">
			<rect id="IMAGE" rx="0.000000" width="63.000000" height="63.000000" transform="translate(0.500000 0.500000)" fill="white" fill-opacity="0"/>
		</clipPath>
	</defs>
	<g clip-path="url(#clip1_164)">
		<path id="Vector" d="M28.42 3C14.84 3 3.39 12.24 0 24.76L2.67 24.76C3.63 21.55 5.18 18.61 7.18 16.03C9.36 17.26 11.89 18.29 14.69 19.08C14.22 20.88 13.84 22.77 13.57 24.76L16.18 24.76C16.44 23 16.79 21.31 17.21 19.71C20.29 20.39 23.63 20.8 27.14 20.88L27.14 24.76L29.7 24.76L29.7 20.88C33.2 20.8 36.54 20.4 39.62 19.71C40.04 21.31 40.4 23 40.66 24.76L43.27 24.76C43 22.77 42.61 20.88 42.14 19.08C44.94 18.29 47.47 17.26 49.66 16.03C51.65 18.61 53.21 21.55 54.16 24.76L56.84 24.76C53.45 12.24 41.99 3 28.42 3ZM27.14 5.71L27.14 18.31C23.88 18.24 20.79 17.87 17.94 17.25C20.04 10.95 23.38 6.54 27.14 5.71ZM29.7 5.71C33.46 6.54 36.79 10.95 38.9 17.25C36.05 17.87 32.95 18.24 29.7 18.31L29.7 5.71ZM20.91 6.65C18.65 9.03 16.77 12.46 15.41 16.62C12.96 15.92 10.75 15.05 8.86 14.03C12.1 10.59 16.25 8.01 20.91 6.65ZM35.93 6.65C40.59 8.01 44.73 10.59 47.97 14.03C46.08 15.05 43.87 15.92 41.43 16.62C40.07 12.46 38.18 9.03 35.93 6.65ZM0.26 27.31L3.51 37.55L6.49 37.55L9.2 29.9L11.91 37.55L14.82 37.55L18.13 27.31L15.36 27.31L13.27 34.47L10.88 27.31L7.62 27.31L5.13 34.35L3.07 27.31L0.26 27.31ZM19.48 27.31L22.73 37.55L25.72 37.55L28.42 29.9L31.13 37.55L34.05 37.55L37.36 27.31L34.58 27.31L32.5 34.47L30.11 27.31L26.84 27.31L24.35 34.35L22.3 27.31L19.48 27.31ZM38.64 27.31L41.9 37.55L44.89 37.55L47.61 29.9L50.33 37.55L53.26 37.55L56.58 27.31L53.8 27.31L51.7 34.47L49.3 27.31L46.02 27.31L43.52 34.35L41.46 27.31L38.64 27.31ZM47.62 38.84C40.58 38.84 34.82 44.6 34.82 51.64C34.82 58.67 40.58 64.43 47.62 64.43C54.66 64.43 60.42 58.67 60.42 51.64C60.42 44.6 54.66 38.84 47.62 38.84ZM0 40.12C3.39 52.64 14.84 61.88 28.42 61.88C30.85 61.88 33.21 61.56 35.48 61.01C35.05 60.46 34.66 59.86 34.32 59.26C33.93 58.59 33.59 57.9 33.31 57.18C32.17 58.21 30.96 58.89 29.7 59.17L29.7 46.55C30.83 46.59 31.96 46.64 33.07 46.74C33.36 45.89 33.71 45.05 34.14 44.27C32.68 44.12 31.2 44.03 29.7 44L29.7 40.12L27.14 40.12L27.14 44C23.68 44.08 20.34 44.47 17.21 45.16C16.79 43.56 16.44 41.88 16.18 40.12L13.57 40.12C13.84 42.11 14.23 44 14.69 45.79C11.92 46.58 9.38 47.6 7.18 48.84C5.18 46.26 3.63 43.32 2.67 40.12L0 40.12ZM47.62 41.39C53.25 41.39 57.86 46.01 57.86 51.64C57.86 57.27 53.25 61.88 47.62 61.88C41.99 61.88 37.38 57.27 37.38 51.64C37.38 46.01 41.99 41.39 47.62 41.39ZM47.62 45.24C44.8 45.24 43.78 47.54 43.78 49.08L46.34 49.08C46.34 48.43 46.59 47.79 47.62 47.79C48.26 47.79 48.9 48.05 48.9 49.08C48.9 49.21 48.51 49.72 48.26 49.97C47.49 50.87 46.34 52.27 46.34 54.2L48.9 54.2C48.9 53.17 49.54 52.4 50.18 51.64C50.82 50.87 51.46 50.1 51.46 49.08C51.46 46.26 49.15 45.24 47.62 45.24ZM27.14 46.55L27.14 59.16C23.38 58.33 20.04 53.92 17.94 47.62C20.83 47 23.93 46.63 27.14 46.55ZM15.41 48.25C16.77 52.41 18.65 55.85 20.91 58.22C16.25 56.86 12.1 54.28 8.85 50.83C10.79 49.79 13 48.92 15.41 48.25ZM46.34 55.48L46.34 58.03L48.9 58.03L48.9 55.48L46.34 55.48Z" fill="#00486D" fill-opacity="1.000000" fill-rule="nonzero"/>
	</g>
</svg>
