<svg width="208.000000" height="48.000000" viewBox="0 0 208 48" fill="none" xmlns="http://www.w3.org/2000/svg" xmlns:xlink="http://www.w3.org/1999/xlink">
	<desc>
			Created with Pixso.
	</desc>
	<defs/>
	<g opacity="0.600000">
		<g opacity="0.600000">
			<path id="Vector" d="M16 40C16 44.41 12.41 48 8 48C3.58 48 0 44.41 0 40C0 35.58 3.58 32 8 32C12.41 32 16 35.58 16 40Z" fill="#CCDAE2" fill-opacity="1.000000" fill-rule="evenodd"/>
		</g>
		<g opacity="0.600000">
			<path id="Vector" d="M48 40C48 44.41 44.41 48 40 48C35.58 48 32 44.41 32 40C32 35.58 35.58 32 40 32C44.41 32 48 35.58 48 40Z" fill="#CCDAE2" fill-opacity="1.000000" fill-rule="evenodd"/>
		</g>
		<g opacity="0.600000">
			<path id="Vector" d="M80 40C80 44.41 76.41 48 72 48C67.58 48 64 44.41 64 40C64 35.58 67.58 32 72 32C76.41 32 80 35.58 80 40Z" fill="#CCDAE2" fill-opacity="1.000000" fill-rule="evenodd"/>
		</g>
		<g opacity="0.600000">
			<path id="Vector" d="M112 40C112 44.41 108.41 48 104 48C99.58 48 96 44.41 96 40C96 35.58 99.58 32 104 32C108.41 32 112 35.58 112 40Z" fill="#CCDAE2" fill-opacity="1.000000" fill-rule="evenodd"/>
		</g>
		<g opacity="0.600000">
			<path id="Vector" d="M144 40C144 44.41 140.41 48 136 48C131.58 48 128 44.41 128 40C128 35.58 131.58 32 136 32C140.41 32 144 35.58 144 40Z" fill="#CCDAE2" fill-opacity="1.000000" fill-rule="evenodd"/>
		</g>
		<g opacity="0.600000">
			<path id="Vector" d="M176 40C176 44.41 172.41 48 168 48C163.58 48 160 44.41 160 40C160 35.58 163.58 32 168 32C172.41 32 176 35.58 176 40Z" fill="#CCDAE2" fill-opacity="1.000000" fill-rule="evenodd"/>
		</g>
		<g opacity="0.600000">
			<path id="Vector" d="M208 40C208 44.41 204.41 48 200 48C195.58 48 192 44.41 192 40C192 35.58 195.58 32 200 32C204.41 32 208 35.58 208 40Z" fill="#CCDAE2" fill-opacity="1.000000" fill-rule="evenodd"/>
		</g>
		<g opacity="0.600000">
			<g opacity="0.600000">
				<path id="Vector" d="M16 8C16 12.41 12.41 16 8 16C3.58 16 0 12.41 0 8C0 3.58 3.58 0 8 0C12.41 0 16 3.58 16 8Z" fill="#CCDAE2" fill-opacity="1.000000" fill-rule="evenodd"/>
			</g>
			<g opacity="0.600000">
				<path id="Vector" d="M48 8C48 12.41 44.41 16 40 16C35.58 16 32 12.41 32 8C32 3.58 35.58 0 40 0C44.41 0 48 3.58 48 8Z" fill="#CCDAE2" fill-opacity="1.000000" fill-rule="evenodd"/>
			</g>
			<g opacity="0.600000">
				<path id="Vector" d="M80 8C80 12.41 76.41 16 72 16C67.58 16 64 12.41 64 8C64 3.58 67.58 0 72 0C76.41 0 80 3.58 80 8Z" fill="#CCDAE2" fill-opacity="1.000000" fill-rule="evenodd"/>
			</g>
			<g opacity="0.600000">
				<path id="Vector" d="M112 8C112 12.41 108.41 16 104 16C99.58 16 96 12.41 96 8C96 3.58 99.58 0 104 0C108.41 0 112 3.58 112 8Z" fill="#CCDAE2" fill-opacity="1.000000" fill-rule="evenodd"/>
			</g>
			<g opacity="0.600000">
				<path id="Vector" d="M144 8C144 12.41 140.41 16 136 16C131.58 16 128 12.41 128 8C128 3.58 131.58 0 136 0C140.41 0 144 3.58 144 8Z" fill="#CCDAE2" fill-opacity="1.000000" fill-rule="evenodd"/>
			</g>
			<g opacity="0.600000">
				<path id="Vector" d="M176 8C176 12.41 172.41 16 168 16C163.58 16 160 12.41 160 8C160 3.58 163.58 0 168 0C172.41 0 176 3.58 176 8Z" fill="#CCDAE2" fill-opacity="1.000000" fill-rule="evenodd"/>
			</g>
			<g opacity="0.600000">
				<path id="Vector" d="M208 8C208 12.41 204.41 16 200 16C195.58 16 192 12.41 192 8C192 3.58 195.58 0 200 0C204.41 0 208 3.58 208 8Z" fill="#CCDAE2" fill-opacity="1.000000" fill-rule="evenodd"/>
			</g>
		</g>
	</g>
</svg>
