<svg width="208.000000" height="208.000000" viewBox="0 0 208 208" fill="none" xmlns="http://www.w3.org/2000/svg" xmlns:xlink="http://www.w3.org/1999/xlink">
	<desc>
			Created with Pixso.
	</desc>
	<defs>
		<clipPath id="clip1_103">
			<rect id="IMAGE" rx="0.000000" width="207.000000" height="207.000000" transform="translate(0.500000 0.500000)" fill="white" fill-opacity="0"/>
		</clipPath>
	</defs>
	<g clip-path="url(#clip1_103)">
		<g opacity="0.600000">
			<g opacity="0.600000">
				<path id="Vector" d="M16 8C16 12.41 12.41 16 8 16C3.58 16 0 12.41 0 8C0 3.58 3.58 0 8 0C12.41 0 16 3.58 16 8Z" fill="#CCDAE2" fill-opacity="1.000000" fill-rule="evenodd"/>
			</g>
			<g opacity="0.600000">
				<path id="Vector" d="M48 8C48 12.41 44.41 16 40 16C35.58 16 32 12.41 32 8C32 3.58 35.58 0 40 0C44.41 0 48 3.58 48 8Z" fill="#CCDAE2" fill-opacity="1.000000" fill-rule="evenodd"/>
			</g>
			<g opacity="0.600000">
				<path id="Vector" d="M80 8C80 12.41 76.41 16 72 16C67.58 16 64 12.41 64 8C64 3.58 67.58 0 72 0C76.41 0 80 3.58 80 8Z" fill="#CCDAE2" fill-opacity="1.000000" fill-rule="evenodd"/>
			</g>
			<g opacity="0.600000">
				<path id="Vector" d="M112 8C112 12.41 108.41 16 104 16C99.58 16 96 12.41 96 8C96 3.58 99.58 0 104 0C108.41 0 112 3.58 112 8Z" fill="#CCDAE2" fill-opacity="1.000000" fill-rule="evenodd"/>
			</g>
			<g opacity="0.600000">
				<path id="Vector" d="M144 8C144 12.41 140.41 16 136 16C131.58 16 128 12.41 128 8C128 3.58 131.58 0 136 0C140.41 0 144 3.58 144 8Z" fill="#CCDAE2" fill-opacity="1.000000" fill-rule="evenodd"/>
			</g>
			<g opacity="0.600000">
				<path id="Vector" d="M176 8C176 12.41 172.41 16 168 16C163.58 16 160 12.41 160 8C160 3.58 163.58 0 168 0C172.41 0 176 3.58 176 8Z" fill="#CCDAE2" fill-opacity="1.000000" fill-rule="evenodd"/>
			</g>
			<g opacity="0.600000">
				<path id="Vector" d="M208 8C208 12.41 204.41 16 200 16C195.58 16 192 12.41 192 8C192 3.58 195.58 0 200 0C204.41 0 208 3.58 208 8Z" fill="#CCDAE2" fill-opacity="1.000000" fill-rule="evenodd"/>
			</g>
		</g>
		<g opacity="0.600000">
			<g opacity="0.600000">
				<path id="Vector" d="M16 40C16 44.41 12.41 48 8 48C3.58 48 0 44.41 0 40C0 35.58 3.58 32 8 32C12.41 32 16 35.58 16 40Z" fill="#CCDAE2" fill-opacity="1.000000" fill-rule="evenodd"/>
			</g>
			<g opacity="0.600000">
				<path id="Vector" d="M48 40C48 44.41 44.41 48 40 48C35.58 48 32 44.41 32 40C32 35.58 35.58 32 40 32C44.41 32 48 35.58 48 40Z" fill="#CCDAE2" fill-opacity="1.000000" fill-rule="evenodd"/>
			</g>
			<g opacity="0.600000">
				<path id="Vector" d="M80 40C80 44.41 76.41 48 72 48C67.58 48 64 44.41 64 40C64 35.58 67.58 32 72 32C76.41 32 80 35.58 80 40Z" fill="#CCDAE2" fill-opacity="1.000000" fill-rule="evenodd"/>
			</g>
			<g opacity="0.600000">
				<path id="Vector" d="M112 40C112 44.41 108.41 48 104 48C99.58 48 96 44.41 96 40C96 35.58 99.58 32 104 32C108.41 32 112 35.58 112 40Z" fill="#CCDAE2" fill-opacity="1.000000" fill-rule="evenodd"/>
			</g>
			<g opacity="0.600000">
				<path id="Vector" d="M144 40C144 44.41 140.41 48 136 48C131.58 48 128 44.41 128 40C128 35.58 131.58 32 136 32C140.41 32 144 35.58 144 40Z" fill="#CCDAE2" fill-opacity="1.000000" fill-rule="evenodd"/>
			</g>
			<g opacity="0.600000">
				<path id="Vector" d="M176 40C176 44.41 172.41 48 168 48C163.58 48 160 44.41 160 40C160 35.58 163.58 32 168 32C172.41 32 176 35.58 176 40Z" fill="#CCDAE2" fill-opacity="1.000000" fill-rule="evenodd"/>
			</g>
			<g opacity="0.600000">
				<path id="Vector" d="M208 40C208 44.41 204.41 48 200 48C195.58 48 192 44.41 192 40C192 35.58 195.58 32 200 32C204.41 32 208 35.58 208 40Z" fill="#CCDAE2" fill-opacity="1.000000" fill-rule="evenodd"/>
			</g>
		</g>
		<g opacity="0.600000">
			<g opacity="0.600000">
				<path id="Vector" d="M16 72C16 76.41 12.41 80 8 80C3.58 80 0 76.41 0 72C0 67.58 3.58 64 8 64C12.41 64 16 67.58 16 72Z" fill="#CCDAE2" fill-opacity="1.000000" fill-rule="evenodd"/>
			</g>
			<g opacity="0.600000">
				<path id="Vector" d="M48 72C48 76.41 44.41 80 40 80C35.58 80 32 76.41 32 72C32 67.58 35.58 64 40 64C44.41 64 48 67.58 48 72Z" fill="#CCDAE2" fill-opacity="1.000000" fill-rule="evenodd"/>
			</g>
			<g opacity="0.600000">
				<path id="Vector" d="M80 72C80 76.41 76.41 80 72 80C67.58 80 64 76.41 64 72C64 67.58 67.58 64 72 64C76.41 64 80 67.58 80 72Z" fill="#CCDAE2" fill-opacity="1.000000" fill-rule="evenodd"/>
			</g>
			<g opacity="0.600000">
				<path id="Vector" d="M112 72C112 76.41 108.41 80 104 80C99.58 80 96 76.41 96 72C96 67.58 99.58 64 104 64C108.41 64 112 67.58 112 72Z" fill="#CCDAE2" fill-opacity="1.000000" fill-rule="evenodd"/>
			</g>
			<g opacity="0.600000">
				<path id="Vector" d="M144 72C144 76.41 140.41 80 136 80C131.58 80 128 76.41 128 72C128 67.58 131.58 64 136 64C140.41 64 144 67.58 144 72Z" fill="#CCDAE2" fill-opacity="1.000000" fill-rule="evenodd"/>
			</g>
			<g opacity="0.600000">
				<path id="Vector" d="M176 72C176 76.41 172.41 80 168 80C163.58 80 160 76.41 160 72C160 67.58 163.58 64 168 64C172.41 64 176 67.58 176 72Z" fill="#CCDAE2" fill-opacity="1.000000" fill-rule="evenodd"/>
			</g>
			<g opacity="0.600000">
				<path id="Vector" d="M208 72C208 76.41 204.41 80 200 80C195.58 80 192 76.41 192 72C192 67.58 195.58 64 200 64C204.41 64 208 67.58 208 72Z" fill="#CCDAE2" fill-opacity="1.000000" fill-rule="evenodd"/>
			</g>
		</g>
		<g opacity="0.600000">
			<g opacity="0.600000">
				<path id="Vector" d="M16 104C16 108.41 12.41 112 8 112C3.58 112 0 108.41 0 104C0 99.58 3.58 96 8 96C12.41 96 16 99.58 16 104Z" fill="#CCDAE2" fill-opacity="1.000000" fill-rule="evenodd"/>
			</g>
			<g opacity="0.600000">
				<path id="Vector" d="M48 104C48 108.41 44.41 112 40 112C35.58 112 32 108.41 32 104C32 99.58 35.58 96 40 96C44.41 96 48 99.58 48 104Z" fill="#CCDAE2" fill-opacity="1.000000" fill-rule="evenodd"/>
			</g>
			<g opacity="0.600000">
				<path id="Vector" d="M80 104C80 108.41 76.41 112 72 112C67.58 112 64 108.41 64 104C64 99.58 67.58 96 72 96C76.41 96 80 99.58 80 104Z" fill="#CCDAE2" fill-opacity="1.000000" fill-rule="evenodd"/>
			</g>
			<g opacity="0.600000">
				<path id="Vector" d="M112 104C112 108.41 108.41 112 104 112C99.58 112 96 108.41 96 104C96 99.58 99.58 96 104 96C108.41 96 112 99.58 112 104Z" fill="#CCDAE2" fill-opacity="1.000000" fill-rule="evenodd"/>
			</g>
			<g opacity="0.600000">
				<path id="Vector" d="M144 104C144 108.41 140.41 112 136 112C131.58 112 128 108.41 128 104C128 99.58 131.58 96 136 96C140.41 96 144 99.58 144 104Z" fill="#CCDAE2" fill-opacity="1.000000" fill-rule="evenodd"/>
			</g>
			<g opacity="0.600000">
				<path id="Vector" d="M176 104C176 108.41 172.41 112 168 112C163.58 112 160 108.41 160 104C160 99.58 163.58 96 168 96C172.41 96 176 99.58 176 104Z" fill="#CCDAE2" fill-opacity="1.000000" fill-rule="evenodd"/>
			</g>
			<g opacity="0.600000">
				<path id="Vector" d="M208 104C208 108.41 204.41 112 200 112C195.58 112 192 108.41 192 104C192 99.58 195.58 96 200 96C204.41 96 208 99.58 208 104Z" fill="#CCDAE2" fill-opacity="1.000000" fill-rule="evenodd"/>
			</g>
		</g>
		<g opacity="0.600000">
			<g opacity="0.600000">
				<path id="Vector" d="M16 136C16 140.41 12.41 144 8 144C3.58 144 0 140.41 0 136C0 131.58 3.58 128 8 128C12.41 128 16 131.58 16 136Z" fill="#CCDAE2" fill-opacity="1.000000" fill-rule="evenodd"/>
			</g>
			<g opacity="0.600000">
				<path id="Vector" d="M48 136C48 140.41 44.41 144 40 144C35.58 144 32 140.41 32 136C32 131.58 35.58 128 40 128C44.41 128 48 131.58 48 136Z" fill="#CCDAE2" fill-opacity="1.000000" fill-rule="evenodd"/>
			</g>
			<g opacity="0.600000">
				<path id="Vector" d="M80 136C80 140.41 76.41 144 72 144C67.58 144 64 140.41 64 136C64 131.58 67.58 128 72 128C76.41 128 80 131.58 80 136Z" fill="#CCDAE2" fill-opacity="1.000000" fill-rule="evenodd"/>
			</g>
			<g opacity="0.600000">
				<path id="Vector" d="M112 136C112 140.41 108.41 144 104 144C99.58 144 96 140.41 96 136C96 131.58 99.58 128 104 128C108.41 128 112 131.58 112 136Z" fill="#CCDAE2" fill-opacity="1.000000" fill-rule="evenodd"/>
			</g>
			<g opacity="0.600000">
				<path id="Vector" d="M144 136C144 140.41 140.41 144 136 144C131.58 144 128 140.41 128 136C128 131.58 131.58 128 136 128C140.41 128 144 131.58 144 136Z" fill="#CCDAE2" fill-opacity="1.000000" fill-rule="evenodd"/>
			</g>
			<g opacity="0.600000">
				<path id="Vector" d="M176 136C176 140.41 172.41 144 168 144C163.58 144 160 140.41 160 136C160 131.58 163.58 128 168 128C172.41 128 176 131.58 176 136Z" fill="#CCDAE2" fill-opacity="1.000000" fill-rule="evenodd"/>
			</g>
			<g opacity="0.600000">
				<path id="Vector" d="M208 136C208 140.41 204.41 144 200 144C195.58 144 192 140.41 192 136C192 131.58 195.58 128 200 128C204.41 128 208 131.58 208 136Z" fill="#CCDAE2" fill-opacity="1.000000" fill-rule="evenodd"/>
			</g>
		</g>
		<g opacity="0.600000">
			<g opacity="0.600000">
				<path id="Vector" d="M16 168C16 172.41 12.41 176 8 176C3.58 176 0 172.41 0 168C0 163.58 3.58 160 8 160C12.41 160 16 163.58 16 168Z" fill="#CCDAE2" fill-opacity="1.000000" fill-rule="evenodd"/>
			</g>
			<g opacity="0.600000">
				<path id="Vector" d="M48 168C48 172.41 44.41 176 40 176C35.58 176 32 172.41 32 168C32 163.58 35.58 160 40 160C44.41 160 48 163.58 48 168Z" fill="#CCDAE2" fill-opacity="1.000000" fill-rule="evenodd"/>
			</g>
			<g opacity="0.600000">
				<path id="Vector" d="M80 168C80 172.41 76.41 176 72 176C67.58 176 64 172.41 64 168C64 163.58 67.58 160 72 160C76.41 160 80 163.58 80 168Z" fill="#CCDAE2" fill-opacity="1.000000" fill-rule="evenodd"/>
			</g>
			<g opacity="0.600000">
				<path id="Vector" d="M112 168C112 172.41 108.41 176 104 176C99.58 176 96 172.41 96 168C96 163.58 99.58 160 104 160C108.41 160 112 163.58 112 168Z" fill="#CCDAE2" fill-opacity="1.000000" fill-rule="evenodd"/>
			</g>
			<g opacity="0.600000">
				<path id="Vector" d="M144 168C144 172.41 140.41 176 136 176C131.58 176 128 172.41 128 168C128 163.58 131.58 160 136 160C140.41 160 144 163.58 144 168Z" fill="#CCDAE2" fill-opacity="1.000000" fill-rule="evenodd"/>
			</g>
			<g opacity="0.600000">
				<path id="Vector" d="M176 168C176 172.41 172.41 176 168 176C163.58 176 160 172.41 160 168C160 163.58 163.58 160 168 160C172.41 160 176 163.58 176 168Z" fill="#CCDAE2" fill-opacity="1.000000" fill-rule="evenodd"/>
			</g>
			<g opacity="0.600000">
				<path id="Vector" d="M208 168C208 172.41 204.41 176 200 176C195.58 176 192 172.41 192 168C192 163.58 195.58 160 200 160C204.41 160 208 163.58 208 168Z" fill="#CCDAE2" fill-opacity="1.000000" fill-rule="evenodd"/>
			</g>
		</g>
		<g opacity="0.600000">
			<g opacity="0.600000">
				<path id="Vector" d="M16 200C16 204.41 12.41 208 8 208C3.58 208 0 204.41 0 200C0 195.58 3.58 192 8 192C12.41 192 16 195.58 16 200Z" fill="#CCDAE2" fill-opacity="1.000000" fill-rule="evenodd"/>
			</g>
			<g opacity="0.600000">
				<path id="Vector" d="M48 200C48 204.41 44.41 208 40 208C35.58 208 32 204.41 32 200C32 195.58 35.58 192 40 192C44.41 192 48 195.58 48 200Z" fill="#CCDAE2" fill-opacity="1.000000" fill-rule="evenodd"/>
			</g>
			<g opacity="0.600000">
				<path id="Vector" d="M80 200C80 204.41 76.41 208 72 208C67.58 208 64 204.41 64 200C64 195.58 67.58 192 72 192C76.41 192 80 195.58 80 200Z" fill="#CCDAE2" fill-opacity="1.000000" fill-rule="evenodd"/>
			</g>
			<g opacity="0.600000">
				<path id="Vector" d="M112 200C112 204.41 108.41 208 104 208C99.58 208 96 204.41 96 200C96 195.58 99.58 192 104 192C108.41 192 112 195.58 112 200Z" fill="#CCDAE2" fill-opacity="1.000000" fill-rule="evenodd"/>
			</g>
			<g opacity="0.600000">
				<path id="Vector" d="M144 200C144 204.41 140.41 208 136 208C131.58 208 128 204.41 128 200C128 195.58 131.58 192 136 192C140.41 192 144 195.58 144 200Z" fill="#CCDAE2" fill-opacity="1.000000" fill-rule="evenodd"/>
			</g>
			<g opacity="0.600000">
				<path id="Vector" d="M176 200C176 204.41 172.41 208 168 208C163.58 208 160 204.41 160 200C160 195.58 163.58 192 168 192C172.41 192 176 195.58 176 200Z" fill="#CCDAE2" fill-opacity="1.000000" fill-rule="evenodd"/>
			</g>
			<g opacity="0.600000">
				<path id="Vector" d="M208 200C208 204.41 204.41 208 200 208C195.58 208 192 204.41 192 200C192 195.58 195.58 192 200 192C204.41 192 208 195.58 208 200Z" fill="#CCDAE2" fill-opacity="1.000000" fill-rule="evenodd"/>
			</g>
		</g>
	</g>
</svg>
