<svg width="130.000000" height="31.000000" viewBox="0 0 130 31" fill="none" xmlns="http://www.w3.org/2000/svg" xmlns:xlink="http://www.w3.org/1999/xlink">
	<desc>
			Created with Pixso.
	</desc>
	<defs>
		<clipPath id="clip1_10">
			<rect id="IMAGE" rx="0.000000" width="129.000000" height="30.000000" transform="translate(0.500000 0.500000)" fill="white" fill-opacity="0"/>
		</clipPath>
	</defs>
	<g clip-path="url(#clip1_10)">
		<path id="Vector" d="M0.67 23L0.67 22.29L1.31 22.1C1.72 21.97 2 21.76 2.15 21.49C2.3 21.19 2.37 20.8 2.37 20.33L2.37 4.43C2.37 4 2.32 3.66 2.21 3.4C2.1 3.12 1.84 2.91 1.41 2.76L0.67 2.47L0.67 1.76L6.8 1.76L12.84 17.47L18.53 1.76L24.79 1.76L24.79 2.47L24.28 2.63C23.87 2.76 23.59 2.96 23.44 3.24C23.29 3.5 23.22 3.84 23.22 4.27C23.2 5.51 23.19 6.75 23.19 7.99C23.19 9.21 23.19 10.46 23.19 11.72L23.19 13.04C23.19 14.28 23.19 15.52 23.19 16.76C23.19 18.01 23.2 19.24 23.22 20.46C23.22 20.91 23.27 21.25 23.38 21.49C23.49 21.72 23.74 21.91 24.15 22.06L24.79 22.29L24.79 23L16.99 23L16.99 22.29L17.69 22.06C18.1 21.91 18.35 21.72 18.43 21.49C18.54 21.23 18.59 20.89 18.59 20.46L18.59 13.49L18.66 4.88L12.1 23L10.31 23L3.4 5.07L3.53 12.39L3.53 20.36C3.53 20.83 3.59 21.21 3.72 21.49C3.85 21.76 4.12 21.96 4.52 22.06L5.17 22.29L5.17 23L0.67 23ZM33.26 23.44C31.8 23.44 30.49 23.13 29.31 22.51C28.13 21.87 27.2 20.95 26.51 19.75C25.85 18.53 25.52 17.05 25.52 15.32C25.52 13.58 25.89 12.11 26.64 10.89C27.39 9.66 28.39 8.73 29.63 8.09C30.89 7.43 32.27 7.09 33.77 7.09C34.99 7.09 36.03 7.3 36.89 7.71C37.74 8.11 38.4 8.64 38.85 9.28C39.3 9.9 39.52 10.56 39.52 11.27C39.52 11.87 39.34 12.33 38.98 12.65C38.63 12.97 38.18 13.13 37.63 13.13C37.03 13.13 36.53 12.92 36.15 12.49C35.79 12.06 35.57 11.52 35.51 10.85C35.49 10.42 35.49 10.06 35.51 9.76C35.55 9.46 35.55 9.17 35.51 8.89C35.42 8.53 35.27 8.28 35.06 8.15C34.86 8.03 34.59 7.96 34.22 7.96C32.87 7.96 31.83 8.51 31.11 9.6C30.4 10.67 30.05 12.42 30.05 14.84C30.05 16.91 30.44 18.51 31.23 19.62C32.03 20.74 33.26 21.29 34.93 21.29C35.91 21.29 36.73 21.11 37.37 20.75C38.01 20.36 38.6 19.81 39.14 19.11L39.65 19.49C39.12 20.78 38.29 21.76 37.18 22.45C36.08 23.11 34.78 23.44 33.26 23.44ZM40.6 23L40.6 22.32L41.28 22.13C41.71 22 41.99 21.81 42.11 21.55C42.24 21.29 42.31 20.95 42.31 20.52L42.31 4.27C42.31 3.82 42.23 3.48 42.08 3.24C41.95 2.98 41.67 2.79 41.25 2.66L40.6 2.44L40.6 1.76L48.41 1.76L48.41 2.44L47.73 2.66C47.33 2.77 47.06 2.95 46.93 3.21C46.8 3.46 46.74 3.82 46.74 4.27L46.74 20.55C46.74 20.98 46.81 21.32 46.96 21.58C47.11 21.82 47.39 22 47.8 22.13L48.41 22.32L48.41 23L40.6 23ZM52.3 23L52.3 22.32L52.68 22.22C53.09 22.12 53.3 21.91 53.32 21.61C53.35 21.31 53.21 20.97 52.91 20.59L46.77 12.07L54.61 4.11C54.93 3.79 55.1 3.5 55.12 3.24C55.17 2.96 54.97 2.75 54.54 2.6L54 2.44L54 1.76L59.07 1.76L59.07 2.44L58.24 2.66C57.75 2.81 57.35 2.99 57.05 3.21C56.75 3.4 56.41 3.7 56.02 4.11L50.3 9.92L57.66 20.43C58 20.9 58.32 21.27 58.62 21.55C58.95 21.83 59.37 22.04 59.91 22.19L60.36 22.32L60.36 23L52.3 23ZM65.09 5.33C64.39 5.33 63.79 5.1 63.3 4.65C62.8 4.2 62.56 3.64 62.56 2.95C62.56 2.24 62.8 1.68 63.3 1.25C63.79 0.8 64.39 0.57 65.09 0.57C65.8 0.57 66.4 0.8 66.89 1.25C67.39 1.68 67.63 2.24 67.63 2.95C67.63 3.64 67.39 4.2 66.89 4.65C66.4 5.1 65.8 5.33 65.09 5.33ZM61.4 23L61.4 22.38L61.88 22.26C62.31 22.13 62.6 21.94 62.75 21.68C62.9 21.42 62.99 21.08 63.01 20.65L63.01 14.74C63.01 14.08 63.01 13.47 63.01 12.91C63.01 12.33 63 11.74 62.97 11.14C62.97 10.71 62.89 10.38 62.72 10.15C62.57 9.89 62.28 9.72 61.85 9.63L61.4 9.54L61.4 8.96L67.02 7.09L67.41 7.45L67.31 12.01L67.31 20.68C67.31 21.11 67.39 21.45 67.54 21.71C67.71 21.97 68 22.16 68.4 22.29L68.76 22.38L68.76 23L61.4 23ZM70.18 23L70.18 22.38L70.7 22.26C71.4 22.04 71.76 21.52 71.76 20.68L71.76 11.21C71.74 10.76 71.66 10.41 71.53 10.18C71.4 9.92 71.13 9.75 70.7 9.66L70.18 9.54L70.18 8.96L75.39 7.09L75.77 7.45L76 9.44C76.77 8.75 77.62 8.2 78.57 7.77C79.53 7.32 80.47 7.09 81.39 7.09C82.81 7.09 83.89 7.48 84.64 8.25C85.41 9.02 85.79 10.2 85.79 11.78L85.79 20.71C85.79 21.55 86.18 22.07 86.95 22.29L87.3 22.38L87.3 23L79.92 23L79.92 22.38L80.4 22.26C81.1 22.02 81.46 21.5 81.46 20.68L81.46 11.14C81.46 10.39 81.3 9.85 80.98 9.5C80.65 9.16 80.12 8.99 79.37 8.99C78.32 8.99 77.23 9.45 76.09 10.37L76.09 20.71C76.09 21.55 76.47 22.07 77.22 22.29L77.54 22.38L77.54 23L70.18 23ZM88.69 23L88.69 22.38L89.17 22.26C89.88 22.02 90.23 21.49 90.23 20.65C90.23 19.92 90.23 19.19 90.23 18.47C90.26 17.72 90.27 16.98 90.27 16.25L90.27 4.04C90.27 3.59 90.19 3.26 90.04 3.05C89.89 2.81 89.6 2.64 89.17 2.53L88.69 2.4L88.69 1.79L94.31 0.45L94.73 0.73L94.6 5.26L94.6 20.65C94.62 21.08 94.71 21.43 94.86 21.71C95.03 21.97 95.32 22.15 95.73 22.26L96.18 22.38L96.18 23L88.69 23ZM105.66 7.09C107.01 7.09 108.17 7.37 109.13 7.93C110.09 8.49 110.83 9.26 111.35 10.24C111.88 11.21 112.15 12.32 112.15 13.58C112.15 13.86 112.14 14.13 112.12 14.39C112.1 14.62 112.05 14.85 111.99 15.06L102.32 15.06C102.34 17.27 102.75 18.85 103.54 19.81C104.36 20.78 105.53 21.26 107.08 21.26C108.15 21.26 109.01 21.09 109.68 20.75C110.34 20.38 110.95 19.88 111.51 19.24L112.02 19.72C111.38 20.9 110.5 21.82 109.39 22.48C108.3 23.12 106.99 23.44 105.47 23.44C103.95 23.44 102.61 23.12 101.45 22.48C100.3 21.84 99.39 20.92 98.72 19.72C98.08 18.5 97.76 17.04 97.76 15.35C97.76 13.59 98.13 12.11 98.88 10.89C99.65 9.66 100.64 8.73 101.84 8.09C103.06 7.43 104.33 7.09 105.66 7.09ZM105.5 8.03C104.88 8.03 104.33 8.21 103.86 8.57C103.41 8.91 103.05 9.54 102.77 10.44C102.51 11.31 102.36 12.56 102.32 14.16L108.07 14.16C108.31 12 108.22 10.44 107.81 9.47C107.41 8.51 106.64 8.03 105.5 8.03ZM116.46 30.74C115.6 30.74 114.93 30.53 114.43 30.13C113.94 29.72 113.69 29.18 113.69 28.52C113.69 27.92 113.9 27.44 114.3 27.07C114.73 26.73 115.2 26.56 115.72 26.56C116.25 26.56 116.69 26.66 117.03 26.85C117.38 27.04 117.68 27.32 117.93 27.68L118.13 27.94C118.62 28.54 119.08 28.53 119.51 27.91C119.79 27.55 120.05 27.1 120.31 26.56C120.59 26.03 120.89 25.32 121.21 24.44L115.11 9.86C114.96 9.45 114.79 9.14 114.59 8.93C114.4 8.69 114.11 8.5 113.73 8.35L113.18 8.15L113.18 7.58L121.11 7.58L121.11 8.15L120.44 8.35C119.97 8.5 119.71 8.73 119.67 9.05C119.65 9.35 119.72 9.75 119.89 10.24L123.17 18.79L126.32 10.18C126.49 9.71 126.55 9.31 126.51 8.99C126.47 8.67 126.2 8.45 125.71 8.35L125 8.15L125 7.58L129.79 7.58L129.79 8.15L129.08 8.38C128.61 8.51 128.27 8.7 128.05 8.96C127.86 9.19 127.68 9.55 127.51 10.02L122.37 23.83C121.51 26.19 120.63 27.92 119.73 29.03C118.85 30.17 117.76 30.74 116.46 30.74Z" fill="#00486D" fill-opacity="1.000000" fill-rule="nonzero"/>
	</g>
</svg>
